HIERARCHY
ROOT Root
{
  OFFSET 0.0 0.0 0.0
  CHANNELS 6 Xposition Yposition Zposition Zrotation Yrotation Xrotation
  JOINT Hips
  {
    OFFSET 0.0 100.0 0.0
    CHANNELS 6 Xposition Yposition Zposition Zrotation Yrotation Xrotation
    JOINT Spine1
    {
      OFFSET 5.003913 -0.037094 -0.013727
      CHANNELS 3 Zrotation Yrotation Xrotation
      JOINT Spine2
      {
        OFFSET 7.125363 -1e-06 0.0
        CHANNELS 3 Zrotation Yrotation Xrotation
        JOINT Chest
        {
          OFFSET 7.594027 1e-06 0.0
          CHANNELS 3 Zrotation Yrotation Xrotation
          JOINT Neck1
          {
            OFFSET 26.313086 -0.460272 -0.181672
            CHANNELS 3 Zrotation Yrotation Xrotation
            JOINT Neck2
            {
              OFFSET 8.045911 0.0 0.0
              CHANNELS 3 Zrotation Yrotation Xrotation
              JOINT Head
              {
                OFFSET 6.432774 0.0 0.0
                CHANNELS 3 Zrotation Yrotation Xrotation
                JOINT HeadEnd
                {
                  OFFSET 16.169773 0.06451 0.00362
                  CHANNELS 3 Zrotation Yrotation Xrotation
                }
                JOINT Jaw
                {
                  OFFSET 0.108741 3.12938 0.002639
                  CHANNELS 3 Zrotation Yrotation Xrotation
                }
                JOINT LeftEye
                {
                  OFFSET 4.45173 8.166359 3.206392
                  CHANNELS 3 Zrotation Yrotation Xrotation
                }
                JOINT RightEye
                {
                  OFFSET 4.436895 8.135758 -3.222429
                  CHANNELS 3 Zrotation Yrotation Xrotation
                }
              }
            }
          }
          JOINT LeftShoulder
          {
            OFFSET 23.218927 5.195579 1.621656
            CHANNELS 3 Zrotation Yrotation Xrotation
            JOINT LeftArm
            {
              OFFSET 15.902118 2e-06 -2e-06
              CHANNELS 3 Zrotation Yrotation Xrotation
              JOINT LeftForeArm
              {
                OFFSET 28.739307 0.0 -1e-06
                CHANNELS 3 Zrotation Yrotation Xrotation
                JOINT LeftHand
                {
                  OFFSET 27.093981 -4e-06 0.0
                  CHANNELS 3 Zrotation Yrotation Xrotation
                  JOINT LeftHandThumb1
                  {
                    OFFSET 2.276781 3.380274 0.83384
                    CHANNELS 3 Zrotation Yrotation Xrotation
                    JOINT LeftHandThumb2
                    {
                      OFFSET 4.705309 -1e-06 -1e-06
                      CHANNELS 3 Zrotation Yrotation Xrotation
                      JOINT LeftHandThumb3
                      {
                        OFFSET 2.798515 0.0 3e-06
                        CHANNELS 3 Zrotation Yrotation Xrotation
                        JOINT LeftHandThumbEnd
                        {
                          OFFSET 3.180793 4e-06 -4e-06
                          CHANNELS 3 Zrotation Yrotation Xrotation
                        }
                      }
                    }
                  }
                  JOINT LeftHandIndex1
                  {
                    OFFSET 3.247786 2.352677 0.137192
                    CHANNELS 3 Zrotation Yrotation Xrotation
                    JOINT LeftHandIndex2
                    {
                      OFFSET 6.367095 1e-06 0.0
                      CHANNELS 3 Zrotation Yrotation Xrotation
                      JOINT LeftHandIndex3
                      {
                        OFFSET 3.662364 0.0 0.0
                        CHANNELS 3 Zrotation Yrotation Xrotation
                        JOINT LeftHandIndex4
                        {
                          OFFSET 2.329242 4e-06 -4e-06
                          CHANNELS 3 Zrotation Yrotation Xrotation
                          JOINT LeftHandIndexEnd
                          {
                            OFFSET 2.767823 1e-06 0.0
                            CHANNELS 3 Zrotation Yrotation Xrotation
                          }
                        }
                      }
                    }
                  }
                  JOINT LeftHandMiddle1
                  {
                    OFFSET 3.163612 0.945023 -0.406112
                    CHANNELS 3 Zrotation Yrotation Xrotation
                    JOINT LeftHandMiddle2
                    {
                      OFFSET 6.276789 3e-06 0.0
                      CHANNELS 3 Zrotation Yrotation Xrotation
                      JOINT LeftHandMiddle3
                      {
                        OFFSET 4.35652 -1e-06 4e-06
                        CHANNELS 3 Zrotation Yrotation Xrotation
                        JOINT LeftHandMiddle4
                        {
                          OFFSET 2.996877 0.0 8e-06
                          CHANNELS 3 Zrotation Yrotation Xrotation
                          JOINT LeftHandMiddleEnd
                          {
                            OFFSET 2.323256 3e-06 -4e-06
                            CHANNELS 3 Zrotation Yrotation Xrotation
                          }
                        }
                      }
                    }
                  }
                  JOINT LeftHandRing1
                  {
                    OFFSET 2.882606 -0.309162 0.107445
                    CHANNELS 3 Zrotation Yrotation Xrotation
                    JOINT LeftHandRing2
                    {
                      OFFSET 6.033198 0.0 4e-06
                      CHANNELS 3 Zrotation Yrotation Xrotation
                      JOINT LeftHandRing3
                      {
                        OFFSET 4.350578 3e-06 0.0
                        CHANNELS 3 Zrotation Yrotation Xrotation
                        JOINT LeftHandRing4
                        {
                          OFFSET 2.651321 2e-06 -7e-06
                          CHANNELS 3 Zrotation Yrotation Xrotation
                          JOINT LeftHandRingEnd
                          {
                            OFFSET 1.937663 1e-06 -4e-06
                            CHANNELS 3 Zrotation Yrotation Xrotation
                          }
                        }
                      }
                    }
                  }
                  JOINT LeftHandPinky1
                  {
                    OFFSET 2.865315 -1.525436 0.575687
                    CHANNELS 3 Zrotation Yrotation Xrotation
                    JOINT LeftHandPinky2
                    {
                      OFFSET 5.54936 1e-06 -8e-06
                      CHANNELS 3 Zrotation Yrotation Xrotation
                      JOINT LeftHandPinky3
                      {
                        OFFSET 3.070974 0.0 -4e-06
                        CHANNELS 3 Zrotation Yrotation Xrotation
                        JOINT LeftHandPinky4
                        {
                          OFFSET 1.549672 1e-06 0.0
                          CHANNELS 3 Zrotation Yrotation Xrotation
                          JOINT LeftHandPinkyEnd
                          {
                            OFFSET 1.952123 0.0 0.0
                            CHANNELS 3 Zrotation Yrotation Xrotation
                          }
                        }
                      }
                    }
                  }
                }
              }
            }
          }
          JOINT RightShoulder
          {
            OFFSET 23.161716 5.296122 -1.380114
            CHANNELS 3 Zrotation Yrotation Xrotation
            JOINT RightArm
            {
              OFFSET -16.027195 -2e-06 1.1e-05
              CHANNELS 3 Zrotation Yrotation Xrotation
              JOINT RightForeArm
              {
                OFFSET -28.736639 4e-06 2e-06
                CHANNELS 3 Zrotation Yrotation Xrotation
                JOINT RightHand
                {
                  OFFSET -27.133619 6e-06 0.0
                  CHANNELS 3 Zrotation Yrotation Xrotation
                  JOINT RightHandThumb1
                  {
                    OFFSET -2.274328 -3.351035 -0.83067
                    CHANNELS 3 Zrotation Yrotation Xrotation
                    JOINT RightHandThumb2
                    {
                      OFFSET -4.703594 -3e-06 2e-06
                      CHANNELS 3 Zrotation Yrotation Xrotation
                      JOINT RightHandThumb3
                      {
                        OFFSET -2.794935 -4e-06 -3e-06
                        CHANNELS 3 Zrotation Yrotation Xrotation
                        JOINT RightHandThumbEnd
                        {
                          OFFSET -3.183852 4e-06 1e-06
                          CHANNELS 3 Zrotation Yrotation Xrotation
                        }
                      }
                    }
                  }
                  JOINT RightHandIndex1
                  {
                    OFFSET -3.253496 -2.33755 -0.127667
                    CHANNELS 3 Zrotation Yrotation Xrotation
                    JOINT RightHandIndex2
                    {
                      OFFSET -6.344434 0.0 0.0
                      CHANNELS 3 Zrotation Yrotation Xrotation
                      JOINT RightHandIndex3
                      {
                        OFFSET -3.654871 0.0 -8e-06
                        CHANNELS 3 Zrotation Yrotation Xrotation
                        JOINT RightHandIndex4
                        {
                          OFFSET -2.327586 -1e-06 0.0
                          CHANNELS 3 Zrotation Yrotation Xrotation
                          JOINT RightHandIndexEnd
                          {
                            OFFSET -2.770001 3e-06 8e-06
                            CHANNELS 3 Zrotation Yrotation Xrotation
                          }
                        }
                      }
                    }
                  }
                  JOINT RightHandMiddle1
                  {
                    OFFSET -3.168223 -0.944764 0.411762
                    CHANNELS 3 Zrotation Yrotation Xrotation
                    JOINT RightHandMiddle2
                    {
                      OFFSET -6.266691 -1e-06 -4e-06
                      CHANNELS 3 Zrotation Yrotation Xrotation
                      JOINT RightHandMiddle3
                      {
                        OFFSET -4.348901 0.0 0.0
                        CHANNELS 3 Zrotation Yrotation Xrotation
                        JOINT RightHandMiddle4
                        {
                          OFFSET -3.00024 2e-06 -4e-06
                          CHANNELS 3 Zrotation Yrotation Xrotation
                          JOINT RightHandMiddleEnd
                          {
                            OFFSET -2.321477 -4e-06 -4e-06
                            CHANNELS 3 Zrotation Yrotation Xrotation
                          }
                        }
                      }
                    }
                  }
                  JOINT RightHandRing1
                  {
                    OFFSET -2.885654 0.293261 -0.119232
                    CHANNELS 3 Zrotation Yrotation Xrotation
                    JOINT RightHandRing2
                    {
                      OFFSET -6.032835 -1e-06 -4e-06
                      CHANNELS 3 Zrotation Yrotation Xrotation
                      JOINT RightHandRing3
                      {
                        OFFSET -4.33881 0.0 -4e-06
                        CHANNELS 3 Zrotation Yrotation Xrotation
                        JOINT RightHandRing4
                        {
                          OFFSET -2.654903 -4e-06 -4e-06
                          CHANNELS 3 Zrotation Yrotation Xrotation
                          JOINT RightHandRingEnd
                          {
                            OFFSET -1.935122 0.0 4e-06
                            CHANNELS 3 Zrotation Yrotation Xrotation
                          }
                        }
                      }
                    }
                  }
                  JOINT RightHandPinky1
                  {
                    OFFSET -2.866241 1.503904 -0.60527
                    CHANNELS 3 Zrotation Yrotation Xrotation
                    JOINT RightHandPinky2
                    {
                      OFFSET -5.553177 -2e-06 0.0
                      CHANNELS 3 Zrotation Yrotation Xrotation
                      JOINT RightHandPinky3
                      {
                        OFFSET -3.062664 -1e-06 -4e-06
                        CHANNELS 3 Zrotation Yrotation Xrotation
                        JOINT RightHandPinky4
                        {
                          OFFSET -1.546529 2e-06 4e-06
                          CHANNELS 3 Zrotation Yrotation Xrotation
                          JOINT RightHandPinkyEnd
                          {
                            OFFSET -1.952341 0.0 -4e-06
                            CHANNELS 3 Zrotation Yrotation Xrotation
                          }
                        }
                      }
                    }
                  }
                }
              }
            }
          }
        }
      }
    }
    JOINT LeftLeg
    {
      OFFSET -8.443107 2.567604 10.043214
      CHANNELS 3 Zrotation Yrotation Xrotation
      JOINT LeftShin
      {
        OFFSET 43.229198 1e-06 -1e-06
        CHANNELS 3 Zrotation Yrotation Xrotation
        JOINT LeftFoot
        {
          OFFSET 42.298611 1e-06 1e-06
          CHANNELS 3 Zrotation Yrotation Xrotation
          JOINT LeftToeBase
          {
            OFFSET 14.165858 1e-06 0.0
            CHANNELS 3 Zrotation Yrotation Xrotation
            JOINT LeftToeEnd
            {
              OFFSET 6.7141 -0.234461 0.0
              CHANNELS 3 Zrotation Yrotation Xrotation
            }
          }
        }
      }
    }
    JOINT RightLeg
    {
      OFFSET -8.303923 2.592729 -10.047278
      CHANNELS 3 Zrotation Yrotation Xrotation
      JOINT RightShin
      {
        OFFSET -43.369682 0.0 1e-06
        CHANNELS 3 Zrotation Yrotation Xrotation
        JOINT RightFoot
        {
          OFFSET -42.260784 4e-06 2e-06
          CHANNELS 3 Zrotation Yrotation Xrotation
          JOINT RightToeBase
          {
            OFFSET -14.222245 -2e-06 -1e-06
            CHANNELS 3 Zrotation Yrotation Xrotation
            JOINT RightToeEnd
            {
              OFFSET -6.660062 0.232574 -2e-06
              CHANNELS 3 Zrotation Yrotation Xrotation
            }
          }
        }
      }
    }
  }
}
MOTION
Frames: 5
Frame Time: 0.03333333333333333
0.0 0.0 0.0 0.0 -0.0 0.0 5.042906 98.342415 311.590973 86.992088 -0.109266 81.933983 1.163578 2.846293 0.470939 -10.018786 0.155776 1.168674 15.281783 0.882919 -0.433166 18.363813 -5.150402 2.839449 -2.656766 -0.58349 1.934405 -36.492523 1.36198 -0.959522 6e-06 -0.0 -0.0 0.025563 0.056289 0.116778 0.078508 -0.042592 0.102058 0.071154 0.144345 0.143214 -123.173286 -64.620895 139.911026 -4.485928 -52.553734 -12.672491 43.625824 -0.217487 0.340152 6.931251 0.72936 -25.113186 17.636637 -26.322741 52.411213 -19.46666 -14.395598 29.410398 0.0 -8.774824 -3e-06 15.634897 -18.62781 6.478298 -0.609777 -1.795656 -3.889329 -4.807087 -11.046811 -2.937854 3e-06 -20.976021 1e-06 -5.01997 -25.03356 -4.031885 6e-06 0.0 0.0 -10.634535 -5.686972 -3.565591 10.573272 -17.922953 -3.113901 1e-06 -13.821211 2e-06 -0.50178 -31.181505 -4.027014 -11.825128 -60.074669 7.52889 -13.982716 -7.1502 -2.875045 13.77273 -8.401493 -3.218245 0.347738 -34.211555 0.771654 -0.963027 -17.733372 2.621021 -1e-06 -1e-06 -1e-06 -17.346422 -20.095221 -4.201786 21.757561 -1.638375 3.86643 1e-06 -6.338824 3e-06 -1.69759 -22.591747 -6.19401 1e-06 -3e-06 -3e-06 70.502205 -81.877037 122.144875 9.721044 -48.440784 -19.318911 54.036785 0.890306 1.414092 -6.988662 7.871877 -51.814075 22.182123 -20.37591 49.933338 -16.701818 -16.743532 28.47654 -1e-06 -12.690604 -1e-06 15.204537 -17.511982 3.287619 -0.105921 -1.513856 -4.275884 -5.039042 -5.612875 -2.953556 4e-06 -11.020525 -2e-06 -6.1113 -15.895338 -3.840472 2e-06 -2e-06 -1e-06 -10.283371 -5.68029 -4.341839 11.028292 -11.302407 -2.372634 -1.384268 -14.238585 -6.320123 -0.625439 -26.924192 -3.827603 -4.004049 -48.82132 -3.423791 -13.708528 -7.363478 -3.720941 18.141151 -14.052742 -3.242672 8e-06 -18.787275 -2e-06 -0.429711 -8.456047 2.555504 0.0 -0.0 1e-06 -15.923539 -20.094492 -5.473587 30.419218 -7.190828 1.735926 3e-06 -8.16293 2e-06 -1.861902 -22.861479 -6.167943 -0.0 -4e-06 -1e-06 152.227097 -12.939436 -15.364137 31.101406 0.054475 -0.290992 -74.699547 -7.649431 -1.435324 -9.830093 1.77738 2.092831 -0.999998 -0.0 0.0 3.669878 6.666268 -9.98595 14.843972 0.077021 -0.066033 -86.23098 2.215769 0.164473 -5.936599 0.657665 1.654576 -1.000001 0.0 0.0 
0.0 0.0 0.0 0.0 -0.0 0.0 5.17021 97.841568 314.644135 86.619461 -0.554999 81.39566 1.038652 2.941968 0.459043 -10.093057 0.186684 1.171435 15.29464 1.033025 -0.184027 18.214613 -5.276511 2.806098 -2.679297 -0.602453 2.047663 -36.719906 1.45437 -0.810924 6e-06 -0.0 -0.0 0.036107 0.055433 0.112363 0.048353 -0.04156 0.09151 0.051424 0.14003 0.145574 -123.174759 -64.188957 139.921982 -4.737594 -52.786556 -12.690334 43.269215 -0.429778 0.362344 6.991809 0.470654 -24.840332 17.636629 -26.322729 52.411194 -19.466654 -14.395596 29.410385 1e-06 -8.77482 -3e-06 15.739431 -18.641563 6.446057 -0.609778 -1.795654 -3.889325 -4.807087 -11.046809 -2.937853 1e-06 -20.976019 3e-06 -5.01997 -25.03356 -4.03188 6e-06 -1e-06 0.0 -10.634531 -5.686969 -3.565588 10.573271 -17.922949 -3.113898 -2e-06 -13.821209 3e-06 -0.501779 -31.181498 -4.027014 -11.853874 -60.123322 7.612329 -13.982712 -7.150199 -2.875041 13.772727 -8.401492 -3.21824 0.34773 -34.211552 0.771657 -0.963029 -17.73337 2.621017 -2e-06 0.0 -0.0 -17.346416 -20.095217 -4.201785 21.757555 -1.638374 3.866431 0.0 -6.338822 1e-06 -1.697589 -22.591747 -6.194008 -0.0 -5e-06 -3e-06 71.163994 -82.176819 121.37719 10.255546 -47.765507 -19.195972 54.771484 1.002667 1.323205 -7.034994 7.951384 -51.638779 22.18211 -20.375891 49.933319 -16.701811 -16.743525 28.47653 -3e-06 -12.690598 -2e-06 15.301637 -17.468882 3.241984 -0.105919 -1.513857 -4.27588 -5.039042 -5.612873 -2.953558 2e-06 -11.020523 -2e-06 -6.111293 -15.895334 -3.840475 1e-06 0.0 0.0 -10.283369 -5.680288 -4.341837 11.028296 -11.302406 -2.372632 -1.384268 -14.238581 -6.320124 -0.625436 -26.924187 -3.827602 -4.115849 -48.882225 -3.297182 -13.708524 -7.363475 -3.720939 18.141146 -14.052736 -3.242674 8e-06 -18.78727 -5e-06 -0.429713 -8.45604 2.555502 1e-06 -0.0 1e-06 -15.923528 -20.094481 -5.473588 30.419205 -7.190827 1.735927 3e-06 -8.162929 -1e-06 -1.861901 -22.861469 -6.167942 0.0 -3e-06 -1e-06 150.946274 -13.024214 -16.887821 22.799015 0.08116 -0.320758 -74.066978 -7.042151 -2.562792 -9.664268 1.802488 2.067359 -0.999998 1e-06 0.0 5.550712 6.749511 -9.522511 14.372439 0.019228 -0.038122 -87.643486 2.544143 -0.262006 -5.962784 0.653857 1.65071 -1.0 -0.0 0.0 
0.0 0.0 0.0 0.0 -0.0 0.0 5.355693 97.20594 317.759583 86.163391 -0.986502 80.885529 0.899051 2.990206 0.453016 -10.181843 0.234619 1.184367 15.338047 1.302473 -0.00818 18.00104 -5.320215 2.736678 -2.67837 -0.634311 2.130834 -37.013908 1.520774 -0.66558 7e-06 0.0 0.0 0.047131 0.048158 0.091936 0.045074 -0.049406 0.069802 0.050929 0.132214 0.12688 -123.163322 -63.864208 139.987061 -4.860898 -53.090412 -12.931187 42.88744 -0.486775 0.389399 7.068048 0.169358 -24.8993 17.636623 -26.322733 52.411182 -19.466656 -14.395598 29.410385 -0.0 -8.774819 -2e-06 15.803212 -18.646368 6.428119 -0.609776 -1.795653 -3.889325 -4.807086 -11.04681 -2.937849 3e-06 -20.976015 5e-06 -5.01997 -25.033554 -4.031874 8e-06 -2e-06 -2e-06 -10.634535 -5.68697 -3.565585 10.573277 -17.922951 -3.113902 1e-06 -13.821209 4e-06 -0.501779 -31.181498 -4.02701 -11.831428 -60.16267 7.66037 -13.982712 -7.150196 -2.875041 13.77273 -8.401493 -3.21824 0.347737 -34.211552 0.771656 -0.963031 -17.733368 2.621021 -2e-06 -0.0 -0.0 -17.346413 -20.095213 -4.20178 21.757555 -1.638376 3.866428 1e-06 -6.338823 2e-06 -1.697591 -22.591743 -6.194005 -3e-06 -4e-06 -1e-06 71.579636 -82.390396 120.926575 10.940346 -47.036732 -19.283672 55.214138 1.144336 1.180534 -7.028375 7.948318 -51.374611 22.18211 -20.375891 49.933308 -16.701811 -16.743528 28.476528 -3e-06 -12.690598 -2e-06 15.38054 -17.41408 3.145081 -0.105917 -1.513855 -4.27588 -5.03904 -5.61287 -2.953556 3e-06 -11.02052 -1e-06 -6.111297 -15.895328 -3.840471 1e-06 0.0 -1e-06 -10.283367 -5.680288 -4.341835 11.028296 -11.302406 -2.372633 -1.384267 -14.238581 -6.320122 -0.625437 -26.924187 -3.8276 -4.188672 -48.871693 -3.256064 -13.708522 -7.363473 -3.720938 18.14115 -14.052739 -3.242675 9e-06 -18.787266 -4e-06 -0.429711 -8.45604 2.555503 1e-06 -0.0 1e-06 -15.923531 -20.094481 -5.473582 30.41921 -7.190828 1.735925 3e-06 -8.162927 -1e-06 -1.861902 -22.861467 -6.167941 0.0 -3e-06 -1e-06 149.598602 -12.984812 -18.34717 16.100155 0.139285 -0.338254 -73.50647 -6.515387 -4.217851 -9.689902 1.843164 2.020561 -0.999999 1e-06 0.0 7.282279 6.788943 -9.093885 14.392865 -0.026155 -0.021968 -89.147949 2.92479 -0.812053 -6.075745 0.635617 1.639608 -1.000002 1e-06 0.0 
0.0 0.0 0.0 0.0 -0.0 0.0 5.624917 96.471558 320.948364 85.77916 -1.348778 80.374046 0.750369 2.957871 0.453597 -10.267476 0.267856 1.227359 15.394771 1.589392 0.130352 17.768156 -5.322861 2.63901 -2.668174 -0.616141 2.150469 -37.252815 1.601327 -0.546378 6e-06 -0.0 0.0 0.052776 0.033143 0.046994 0.069846 -0.066012 0.030996 0.077049 0.117812 0.075539 -123.255043 -63.663956 140.138565 -5.011435 -53.336407 -13.168204 42.450329 -0.423768 0.399116 7.107795 -0.132161 -25.313862 17.636633 -26.322729 52.411182 -19.466648 -14.395596 29.410381 1e-06 -8.774819 -4e-06 15.865391 -18.649101 6.398857 -0.609778 -1.795655 -3.889324 -4.807091 -11.046807 -2.937849 4e-06 -20.976015 2e-06 -5.019974 -25.033556 -4.031878 7e-06 -1e-06 0.0 -10.634535 -5.686972 -3.565583 10.573275 -17.922947 -3.1139 -2e-06 -13.821206 5e-06 -0.501784 -31.181505 -4.027016 -11.882584 -60.273537 7.712646 -13.982712 -7.150197 -2.875041 13.772726 -8.401489 -3.21824 0.347732 -34.211544 0.771656 -0.96303 -17.73337 2.621018 -2e-06 1e-06 -0.0 -17.346416 -20.095213 -4.20178 21.757555 -1.638373 3.866429 1e-06 -6.338823 2e-06 -1.697591 -22.59174 -6.194006 -3e-06 -4e-06 -1e-06 71.375679 -82.503883 121.151588 11.602024 -46.308315 -19.645922 55.376003 1.194833 1.060994 -6.984525 7.904711 -51.080338 22.182112 -20.375875 49.933296 -16.701807 -16.743525 28.476519 -2e-06 -12.690596 -4e-06 15.41593 -17.388098 3.014632 -0.105919 -1.513851 -4.27588 -5.03904 -5.612871 -2.953555 3e-06 -11.020519 -2e-06 -6.111296 -15.895326 -3.840473 1e-06 -1e-06 -1e-06 -10.283365 -5.680285 -4.341839 11.02829 -11.302397 -2.372631 -1.38427 -14.238577 -6.32012 -0.625436 -26.924175 -3.827604 -4.115206 -48.746975 -3.369641 -13.70852 -7.36347 -3.72094 18.141146 -14.052735 -3.242673 7e-06 -18.787262 -4e-06 -0.429712 -8.456039 2.555503 0.0 0.0 2e-06 -15.923532 -20.094479 -5.473584 30.419205 -7.190822 1.735928 3e-06 -8.162925 -1e-06 -1.861902 -22.861464 -6.16794 0.0 -3e-06 -2e-06 148.351974 -12.717506 -19.483402 11.851069 0.167596 -0.41363 -73.379227 -6.552671 -5.770115 -9.762639 1.890849 1.970427 -0.999999 -1e-06 0.0 9.011797 6.609346 -8.713753 14.674016 -0.07623 0.015777 -90.651054 3.393211 -1.484611 -6.323473 0.626916 1.628472 -1.000001 -0.0 -0.0 
0.0 0.0 0.0 0.0 -0.0 0.0 5.973565 95.798393 324.288574 85.60894 -1.613735 79.791702 0.609496 2.789557 0.475828 -10.391047 0.282942 1.33875 15.468526 1.802033 0.200812 17.492567 -5.24774 2.590001 -2.585627 -0.579415 2.142237 -37.367718 1.667915 -0.470469 5e-06 -0.0 -0.0 0.057925 0.038971 0.063396 0.092712 -0.057489 0.050955 0.093877 0.120936 0.087341 -123.534233 -63.470127 140.41806 -5.198255 -53.402225 -13.204502 41.983776 -0.222803 0.530085 7.031425 -0.338309 -26.12611 17.636637 -26.322744 52.411213 -19.46666 -14.395598 29.410395 -1e-06 -8.774822 -2e-06 16.003757 -18.581413 6.356471 -0.609776 -1.795654 -3.88933 -4.807092 -11.046813 -2.93785 4e-06 -20.976021 3e-06 -5.019971 -25.033564 -4.031882 6e-06 -0.0 0.0 -10.634535 -5.686974 -3.565589 10.573277 -17.922953 -3.1139 0.0 -13.821213 4e-06 -0.501785 -31.181507 -4.027014 -11.913967 -60.473042 7.740405 -13.982713 -7.150198 -2.875042 13.772731 -8.401492 -3.218245 0.347733 -34.211559 0.771658 -0.963029 -17.733372 2.621018 0.0 -0.0 -0.0 -17.346422 -20.095217 -4.201785 21.757557 -1.638377 3.866431 1e-06 -6.338823 2e-06 -1.697592 -22.591749 -6.194007 -1e-06 -3e-06 1e-06 70.253685 -82.543015 122.385925 12.190549 -45.610405 -20.356703 55.215607 1.035357 1.086635 -7.038757 7.854624 -50.816486 22.182121 -20.3759 49.933334 -16.701811 -16.743526 28.476534 -3e-06 -12.6906 -4e-06 15.395538 -17.449997 2.924941 -0.105919 -1.513857 -4.275882 -5.039042 -5.612873 -2.953557 4e-06 -11.020523 -2e-06 -6.111299 -15.895332 -3.840472 1e-06 0.0 -2e-06 -10.283371 -5.680291 -4.341839 11.028293 -11.302403 -2.372632 -1.384268 -14.238585 -6.320123 -0.625438 -26.924191 -3.827605 -3.965147 -48.501865 -3.561504 -13.708524 -7.363476 -3.720942 18.141148 -14.052744 -3.242675 5e-06 -18.78727 -3e-06 -0.429711 -8.456043 2.555505 0.0 -0.0 1e-06 -15.923536 -20.094484 -5.473588 30.419214 -7.190827 1.735926 3e-06 -8.162926 -0.0 -1.861903 -22.861473 -6.167942 0.0 -3e-06 -1e-06 147.417053 -12.206821 -20.127346 10.432829 0.165656 -0.468731 -73.451271 -7.157381 -6.265256 -9.691553 1.902856 1.944197 -0.999997 0.0 1e-06 11.096448 6.065693 -8.392385 14.566683 -0.11923 0.027899 -91.403648 3.912222 -2.216322 -6.634668 0.597311 1.624379 -1.000001 0.0 0.0 
